<svg xmlns="http://www.w3.org/2000/svg" xmlns:xlink="http://www.w3.org/1999/xlink" width="100" height="84" viewBox="0 0 100 84">
    <defs>
        <path id="a" d="M0 .014h14.232v11.448H0z"/>
        <path id="c" d="M.041.281H58.5V47.68H.041z"/>
    </defs>
    <g fill="none" fill-rule="evenodd">
        <path fill="#90C620" d="M33.13 29.288c3.53-.101 6.257 2.86 6.242 6.012-.016 3.417-2.741 6.356-6.775 6.105-2.952-.183-5.634-2.532-5.685-6.02-.047-3.25 2.661-6.138 6.218-6.097M66.32 6.517c2.644.085 5.049 2.014 5.178 4.672.09 1.852-.618 3.303-2.084 4.41-1.147.865-2.422 1.027-3.827.861-1.756-.207-2.94-1.166-3.836-2.585-.641-1.016-.615-2.159-.421-3.268.362-2.074 1.759-3.266 3.66-3.92.47-.162 1.007-.133 1.33-.17"/>
        <path fill="#4F8248" d="M69.66 44.068999999999996c-.104-.777-.387-2.688-.428-2.864.017.073-.056-.564-.121-.956.009.074.021.146.028.22l.015.179-.015-.179c-.07-.792-.272-1.543-.453-2.31-.28-1.183-.461-2.39-.784-3.566-.515-1.886-.995-3.78-1.668-5.622-.418-1.142-.908-2.257-1.278-3.415-.59-1.217-1.142-2.454-1.753-3.664a44.886 44.886 0 0 0-3.377-5.656 46.81 46.81 0 0 0-4.063-4.996c-2.373-2.535-5.03-4.727-7.928-6.62C45 2.768 41.963 1.3 38.795.108c-.123-.047-.243-.22-.415.005.153.217.303.451.475.668 1.43 1.803 2.752 3.686 4.074 5.566a129.852 129.852 0 0 1 5.127 7.914 136.658 136.658 0 0 1 6.123 11.417 134.395 134.395 0 0 1 4.986 11.869 144.824 144.824 0 0 1 2.924 8.876c.696 2.376 1.353 4.765 1.908 7.18.4 1.741.837 3.473 1.174 5.229.35 1.826.713 3.65 1.017 5.486.22 1.332.466 2.663.64 4 .213 1.643.495 3.276.651 4.93.162 1.707.285 3.424.618 5.013.061-.248.186-.58.24-.937.202-1.36.457-2.714.672-4.073.159-1.007.315-2.017.42-3.032.148-1.448.325-2.893.454-4.343.112-1.247.241-2.495.287-3.743.042-1.15.088-2.3.163-3.447.21-3.227-.017-6.444-.194-9.66a64.146 64.146 0 0 0-.479-4.957"/>
        <path fill="#90C620" d="M98.846 7.962c-1.01.14-2.027.26-3.023.472-.801.17-1.622.228-2.411.434-1.232.32-2.482.576-3.692.98-.846.28-1.71.51-2.552.805-1.01.353-2.013.73-3.003 1.136-1.108.453-2.254.854-3.282 1.453-1.054.615-2.145 1.166-3.193 1.796-1.665 1.003-3.234 2.134-4.78 3.3-.997.754-1.905 1.615-2.853 2.427-1.42 1.215-2.71 2.552-3.954 3.937a4.655 4.655 0 0 1-.234.241c1.441 3.769 3.34 9.764 4.271 15.655.538-1.166.987-2.371 1.564-3.527.775-1.55 1.515-3.115 2.35-4.636 1.376-2.506 2.95-4.887 4.555-7.248.629-.925 1.38-1.766 2.044-2.669.743-1.007 1.58-1.942 2.4-2.876.782-.89 1.606-1.773 2.552-2.517.412-.325.78-.718 1.15-1.084.325-.321.64-.64 1.004-.92.686-.526 1.385-1.05 2.026-1.619.941-.835 2.041-1.415 3.064-2.108.597-.404 1.291-.703 1.926-1.08.499-.297 1.004-.616 1.55-.797 1.155-.38 2.197-.988 3.344-1.5-.315-.11-.576-.09-.823-.055"/>
        <path fill="#4F8248" d="M17.696 47.906c-.332-.937-.634-1.886-.948-2.83l-2.92-8.782c-.043-.13-.006-.328-.29-.314-.209.464-.435.946-.644 1.434-.911 2.122-1.818 4.246-2.727 6.37l4.907 10.514a.97.97 0 0 1 .045-.117c.845-1.746 1.663-3.504 2.505-5.251.167-.346.202-.658.072-1.024"/>
        <g transform="translate(0 43.419)">
            <mask id="b" fill="#fff">
                <use xlink:href="#a"/>
            </mask>
            <path fill="#90C620" d="M9.332.845C9.036.828 8.74.786 8.445.775 6.862.72 5.294.469 3.72.314 2.732.216 1.739.161.752.041.518.012.251-.038 0 .172c.153.376.322.707.533 1.03.768 1.174 1.514 2.36 2.263 3.546.64 1.012 1.272 2.028 1.909 3.041.502.8 1.089 1.56 1.484 2.409.394.847.976 1.183 1.853 1.148.153-.006.306-.008.46-.006 1.353.016 2.707-.027 4.061.072.555.041 1.128.116 1.67-.067L9.331.845z" mask="url(#b)"/>
        </g>
        <path fill="#90C620" d="M40.875 39.463c-.18.25-.382.484-.575.724-.767.954-1.749 1.672-2.67 2.461-.825.708-1.8 1.155-2.73 1.675-.796.446-1.646.817-2.508 1.118-1.104.386-2.204.783-3.348 1.068-1.383.344-2.776.642-4.166.953-1.901.426-3.886.342-5.629.935 1.468-.02 3.05.266 4.646.357 1.021.059 2.046.04 3.064.149 2.428.258 4.85.153 7.269-.13.59-.07 1.164-.206 1.737-.351 1.193-1.242 3.463-3.788 4.91-8.96"/>
        <g transform="translate(8 36.379)">
            <mask id="d" fill="#fff">
                <use xlink:href="#c"/>
            </mask>
            <path fill="#4F8248" d="M58.484 47.302c-.067-.713-.176-1.424-.203-2.138-.073-1.917-.357-3.81-.64-5.7a63.819 63.819 0 0 0-1.055-5.331 62.508 62.508 0 0 0-1.74-6.026 58.526 58.526 0 0 0-4.415-9.768 58.406 58.406 0 0 0-6.484-9.195 62.031 62.031 0 0 0-6.218-6.253c-.919-.805-1.864-1.58-2.81-2.353-.489-.399-.603-.354-.694.283-.051.363-.127 1.334-.155 1.486-.905 4.906-3.395 8.163-4.804 9.745l.007.027c-1.332 1.615-2.949 2.899-4.744 3.951-2.654 1.556-5.556 2.435-8.556 3.007-2.21.421-4.445.62-6.69.752-2.789.165-5.572.192-8.36.013-.262-.017-.545-.072-.882.06.299.263.523.516.796.692 1.655 1.065 3.3 2.15 5.06 3.042.887.45 1.792.874 2.715 1.248 1.892.768 3.819 1.428 5.832 1.827 1.68.333 3.365.623 5.08.654 2.122.037 4.237.02 6.342-.342 1.105-.19 2.212-.378 3.295-.642a40.284 40.284 0 0 0 7.58-2.645c.455-.213.793-.144 1.202.123 4.143 2.708 7.771 5.994 10.975 9.754 2.878 3.377 5.353 7.04 7.575 10.878.623 1.076 1.252 2.15 1.881 3.229.17-.122.121-.257.11-.378" mask="url(#d)"/>
        </g>
    </g>
</svg>
